<?xml version="1.0" standalone="no"?>
<!DOCTYPE svg PUBLIC "-//W3C//DTD SVG 20010904//EN"
 "http://www.w3.org/TR/2001/REC-SVG-20010904/DTD/svg10.dtd">
<svg version="1.0" xmlns="http://www.w3.org/2000/svg"
 width="1912.000000pt" height="1912.000000pt" viewBox="0 0 1912.000000 1912.000000"
 preserveAspectRatio="xMidYMid meet">
<metadata>
Created by potrace 1.14, written by Peter Selinger 2001-2017
</metadata>
<g transform="translate(0.000000,1912.000000) scale(0.100000,-0.100000)"
fill="#000000" stroke="none">
<path d="M9454 18182 c-10 -14 -16 -15 -43 -5 -26 9 -32 9 -40 -4 -6 -12 -17
-14 -39 -10 -17 4 -34 2 -37 -3 -3 -6 -16 -10 -28 -10 -12 0 -28 -9 -35 -21
-10 -15 -20 -19 -37 -15 -13 3 -27 2 -30 -4 -3 -5 -15 -10 -25 -10 -10 0 -22
-9 -25 -20 -3 -11 -15 -20 -25 -20 -11 0 -20 -10 -24 -26 -4 -16 -12 -24 -23
-22 -15 3 -63 -34 -63 -48 0 -3 -15 -21 -34 -40 -19 -20 -38 -49 -41 -65 -4
-16 -15 -34 -25 -39 -10 -5 -21 -23 -25 -39 -3 -16 -13 -35 -21 -42 -8 -6 -14
-28 -14 -49 0 -24 -7 -43 -20 -55 -14 -12 -20 -31 -20 -59 0 -24 -8 -53 -20
-71 -11 -16 -20 -43 -20 -60 0 -16 -7 -38 -15 -48 -7 -11 -16 -36 -20 -57 -4
-22 -13 -44 -21 -51 -8 -6 -14 -28 -14 -48 0 -20 -9 -56 -20 -80 -11 -24 -20
-57 -20 -75 0 -17 -6 -41 -14 -52 -8 -11 -17 -45 -21 -76 -4 -32 -13 -63 -21
-69 -8 -6 -14 -28 -14 -48 0 -20 -9 -53 -20 -74 -11 -20 -20 -52 -20 -69 0
-18 -7 -45 -15 -61 -8 -15 -17 -55 -21 -90 -4 -34 -13 -71 -20 -82 -7 -11 -16
-45 -20 -75 -4 -30 -13 -67 -20 -82 -8 -15 -14 -49 -14 -77 0 -28 -6 -55 -13
-63 -8 -7 -17 -46 -20 -86 -4 -40 -13 -83 -21 -95 -8 -12 -16 -53 -19 -92 -2
-38 -12 -83 -21 -100 -9 -16 -16 -51 -16 -76 0 -26 -7 -63 -15 -82 -8 -20 -15
-59 -15 -86 0 -28 -6 -68 -14 -88 -8 -21 -17 -71 -21 -111 -3 -40 -13 -92 -21
-114 -8 -22 -14 -72 -14 -110 0 -38 -7 -84 -15 -105 -8 -19 -15 -63 -15 -97 0
-34 -7 -88 -15 -119 -8 -32 -15 -81 -16 -110 0 -29 -5 -77 -10 -107 -5 -30
-15 -116 -23 -190 -7 -74 -16 -142 -19 -150 -4 -8 -8 -71 -11 -140 -2 -69 -9
-138 -15 -153 -6 -16 -11 -76 -11 -135 -1 -59 -6 -127 -12 -152 -21 -92 -51
-1078 -43 -1450 7 -320 49 -1236 64 -1405 6 -60 13 -146 16 -190 12 -176 28
-326 55 -520 5 -38 14 -113 20 -165 19 -175 31 -265 45 -330 8 -36 21 -121 30
-190 36 -276 56 -331 117 -322 18 3 38 12 44 21 10 12 16 13 38 3 21 -9 27 -9
34 5 6 11 18 14 36 11 15 -3 29 -1 32 3 3 5 19 9 35 9 17 0 32 6 35 15 7 18
35 20 52 3 13 -13 25 -3 35 27 2 6 13 5 30 -2 16 -8 29 -9 32 -3 4 6 20 10 36
10 17 0 32 6 35 15 7 17 40 20 49 5 10 -16 23 -12 30 10 7 23 37 26 55 5 10
-13 15 -12 30 8 16 19 22 20 38 10 17 -10 23 -9 33 3 8 10 21 13 36 9 16 -4
25 -1 29 10 7 17 49 21 59 5 4 -6 14 -1 25 12 17 20 21 21 40 10 19 -11 25
-11 42 4 15 15 23 16 38 7 15 -10 19 -9 24 4 5 11 14 14 40 9 25 -5 35 -3 40
9 6 17 41 20 51 5 9 -15 25 -12 25 4 0 23 20 29 47 15 20 -11 26 -11 34 1 11
18 3 108 -21 220 -10 47 -26 146 -34 220 -9 74 -25 187 -36 251 -11 64 -26
193 -35 285 -23 276 -35 383 -50 490 -8 56 -15 137 -15 180 0 44 -4 117 -10
164 -5 47 -12 132 -15 190 -3 58 -8 141 -11 185 -10 150 -13 1305 -3 1338 5
18 9 123 9 235 0 111 5 223 10 248 6 25 11 100 11 167 0 66 7 155 14 196 8 42
15 125 15 184 0 73 5 119 15 144 10 23 15 69 15 135 0 55 5 109 11 120 7 12
15 74 19 137 4 64 12 129 19 144 6 16 11 57 11 92 0 36 6 84 14 107 8 24 17
80 20 125 4 45 13 97 21 117 8 19 15 62 15 95 0 33 5 72 11 88 6 15 15 65 20
111 5 46 13 91 19 102 5 10 14 55 19 99 5 45 13 87 19 94 5 6 12 38 15 70 3
32 10 64 15 70 5 7 13 41 16 76 4 36 14 77 22 92 8 16 14 47 14 71 0 24 9 63
20 87 11 24 20 62 20 86 0 24 6 48 14 54 7 6 16 36 19 67 3 31 12 63 20 73 8
9 17 45 21 80 3 35 10 69 15 75 5 6 12 31 16 56 4 25 13 52 20 60 7 8 15 35
19 60 4 25 13 54 20 65 7 11 16 44 19 73 3 29 13 59 22 68 8 8 15 30 15 47 0
18 9 46 20 62 11 17 20 44 20 60 0 17 9 48 20 70 11 22 20 49 20 60 0 11 6 30
14 41 8 11 17 42 21 69 4 28 14 69 22 92 35 97 -34 354 -129 481 -66 88 -129
150 -157 155 -16 3 -54 28 -86 56 -50 44 -60 49 -91 44 -27 -4 -43 0 -66 17
-26 19 -33 20 -53 10 -24 -13 -36 -11 -70 15 -18 13 -22 13 -31 -3z"/>
<path d="M6076 17325 c-7 -18 -29 -19 -56 -3 -16 11 -22 9 -34 -7 -14 -19 -15
-20 -45 -2 -27 16 -31 16 -31 2 0 -22 -24 -29 -51 -15 -18 10 -24 9 -31 -4 -5
-9 -17 -16 -27 -16 -11 0 -21 -7 -25 -15 -3 -8 -16 -15 -29 -15 -34 0 -85 -28
-92 -49 -3 -11 -15 -21 -25 -24 -11 -3 -20 -12 -20 -21 0 -9 -7 -16 -15 -16
-9 0 -20 -11 -25 -25 -5 -14 -16 -25 -25 -25 -8 0 -15 -9 -15 -20 0 -13 -7
-20 -19 -20 -13 0 -20 -9 -24 -30 -4 -17 -13 -30 -21 -30 -8 0 -17 -13 -21
-29 -3 -16 -12 -35 -20 -41 -7 -6 -16 -32 -20 -58 -4 -26 -13 -54 -20 -62 -7
-8 -15 -49 -18 -90 -3 -41 -12 -88 -21 -105 -9 -16 -16 -52 -16 -78 0 -26 -7
-64 -15 -84 -8 -19 -15 -56 -15 -82 0 -25 -5 -64 -11 -86 -6 -22 -15 -80 -20
-130 -5 -49 -16 -110 -24 -134 -8 -25 -15 -72 -15 -107 0 -34 -7 -81 -15 -104
-8 -23 -15 -77 -15 -119 -1 -42 -5 -96 -11 -121 -6 -25 -14 -101 -19 -170 -5
-69 -14 -141 -20 -160 -5 -19 -10 -87 -10 -150 0 -63 -5 -131 -10 -150 -6 -19
-12 -129 -15 -245 -2 -115 -7 -232 -12 -260 -12 -75 -8 -1027 5 -1285 28 -539
56 -933 68 -951 5 -9 11 -59 34 -294 25 -264 32 -324 45 -375 8 -30 19 -102
24 -160 6 -58 19 -150 30 -205 11 -55 27 -149 36 -210 9 -60 25 -150 35 -200
11 -49 22 -110 25 -135 4 -25 27 -135 52 -245 25 -110 54 -244 64 -298 10 -54
21 -102 24 -107 3 -5 14 -48 25 -97 18 -85 67 -278 110 -433 11 -41 30 -109
41 -150 80 -292 268 -857 298 -892 24 -29 25 -30 33 -9 8 22 42 29 53 10 5 -6
13 -3 22 10 8 12 22 21 32 21 11 0 21 7 25 15 6 17 42 20 51 4 5 -6 13 -2 22
11 10 14 22 20 35 17 12 -3 22 1 25 10 4 10 14 13 34 9 22 -4 31 -1 40 15 7
13 17 19 29 16 11 -3 21 1 25 10 4 11 14 14 33 10 21 -4 31 -1 40 14 7 11 21
19 30 18 9 -1 25 1 35 6 9 4 26 5 37 2 13 -3 21 1 25 14 4 13 16 19 35 19 16
0 32 5 36 11 3 6 17 9 31 6 16 -3 27 2 34 15 8 16 17 19 40 14 16 -3 29 -1 29
4 0 6 14 10 30 10 20 0 30 5 30 15 0 21 24 29 48 16 16 -8 21 -7 26 4 3 8 16
15 30 15 14 0 28 5 32 11 3 6 20 9 36 7 21 -4 32 0 39 15 8 13 18 18 35 14 14
-2 27 0 30 4 3 5 18 9 34 9 19 0 31 6 34 18 8 25 -15 119 -62 252 -22 63 -49
147 -61 185 -11 39 -34 113 -50 165 -58 189 -72 237 -97 335 -14 55 -50 197
-80 315 -31 118 -64 258 -74 310 -10 52 -23 106 -28 120 -5 14 -19 80 -31 148
-12 68 -24 129 -27 135 -7 20 -52 269 -84 472 -17 105 -37 224 -45 266 -7 41
-21 142 -29 225 -9 82 -23 185 -30 229 -17 92 -31 225 -46 440 -6 83 -15 200
-21 260 -42 489 -61 1746 -28 1955 5 37 14 141 19 231 19 334 28 449 38 481 6
18 13 80 17 137 3 58 10 112 14 120 5 9 11 59 14 112 3 53 10 105 15 116 6 10
14 59 17 109 4 49 13 99 21 111 8 13 14 48 14 81 0 33 6 77 13 98 8 22 17 71
20 110 4 39 14 84 22 100 8 16 15 46 15 66 0 21 5 68 12 105 10 60 9 80 -10
168 -14 64 -39 135 -68 197 -48 99 -82 139 -227 265 -52 46 -63 50 -95 46 -32
-4 -43 1 -78 31 -36 31 -44 34 -54 21 -17 -21 -44 -19 -65 5 -22 24 -31 25
-39 5z"/>
<path d="M12468 16538 c-14 -20 -18 -21 -43 -10 -24 11 -30 11 -37 -2 -5 -9
-20 -16 -33 -16 -14 0 -25 -4 -25 -10 0 -5 -13 -10 -29 -10 -16 0 -34 -7 -41
-15 -7 -8 -18 -15 -26 -15 -7 0 -16 -9 -19 -20 -3 -11 -15 -20 -25 -20 -11 0
-24 -9 -30 -20 -6 -11 -15 -20 -20 -20 -9 0 -60 -47 -60 -56 0 -3 -18 -24 -40
-46 -22 -23 -40 -50 -40 -60 0 -10 -7 -21 -15 -24 -8 -3 -17 -15 -21 -26 -3
-11 -12 -27 -20 -36 -41 -47 -63 -81 -69 -105 -4 -14 -13 -31 -21 -38 -8 -6
-14 -19 -14 -29 0 -9 -9 -27 -20 -40 -11 -13 -20 -29 -20 -37 0 -7 -7 -16 -15
-19 -7 -3 -22 -26 -31 -50 -9 -24 -21 -44 -25 -44 -5 0 -9 -13 -9 -28 0 -16
-9 -37 -20 -47 -11 -10 -20 -23 -20 -30 0 -7 -9 -22 -20 -35 -11 -13 -20 -28
-20 -34 0 -6 -9 -28 -20 -49 -11 -20 -20 -46 -20 -57 0 -11 -7 -23 -15 -26 -8
-3 -20 -24 -27 -45 -6 -22 -17 -44 -25 -50 -7 -6 -13 -24 -13 -39 0 -15 -9
-37 -20 -50 -11 -13 -20 -28 -20 -34 0 -6 -9 -28 -20 -49 -11 -20 -20 -47 -20
-60 0 -12 -9 -30 -20 -40 -11 -9 -20 -27 -20 -40 0 -12 -6 -31 -13 -42 -8 -11
-17 -35 -20 -53 -4 -19 -16 -45 -27 -59 -11 -14 -20 -38 -20 -52 0 -15 -6 -36
-14 -47 -8 -11 -19 -39 -25 -62 -7 -23 -16 -42 -20 -42 -5 0 -11 -18 -14 -41
-3 -22 -12 -48 -21 -58 -9 -10 -16 -33 -16 -52 0 -19 -9 -47 -20 -64 -11 -16
-20 -37 -20 -45 0 -8 -7 -28 -15 -44 -8 -16 -18 -47 -21 -70 -4 -22 -12 -50
-19 -61 -7 -11 -15 -41 -19 -67 -4 -25 -13 -48 -20 -51 -8 -3 -16 -29 -19 -62
-3 -31 -12 -64 -20 -74 -8 -9 -17 -35 -20 -59 -3 -24 -12 -51 -21 -61 -9 -10
-16 -34 -16 -54 0 -21 -9 -54 -20 -74 -11 -21 -20 -54 -20 -73 0 -20 -7 -45
-15 -56 -8 -10 -15 -39 -15 -64 0 -26 -9 -62 -20 -83 -11 -20 -20 -52 -20 -70
0 -18 -6 -41 -14 -52 -7 -11 -16 -48 -19 -83 -4 -34 -13 -72 -21 -85 -7 -12
-16 -49 -19 -83 -4 -33 -13 -74 -22 -90 -8 -16 -15 -51 -15 -77 0 -26 -6 -60
-14 -75 -7 -15 -17 -54 -20 -87 -4 -33 -14 -79 -22 -103 -8 -23 -14 -63 -14
-88 0 -25 -6 -57 -14 -72 -7 -15 -16 -63 -19 -107 -3 -44 -13 -100 -21 -124
-9 -24 -16 -67 -16 -96 0 -29 -7 -72 -15 -95 -8 -24 -15 -77 -15 -121 0 -45
-6 -95 -15 -116 -8 -21 -16 -83 -19 -138 -2 -55 -9 -120 -15 -145 -12 -53 -32
-281 -37 -430 -2 -58 -8 -172 -15 -255 -15 -209 3 -793 36 -1150 14 -148 30
-286 35 -306 6 -20 21 -95 35 -165 13 -71 29 -147 35 -169 37 -150 50 -200 73
-277 56 -186 186 -487 243 -563 12 -16 34 -56 49 -87 15 -31 48 -81 73 -111
68 -79 104 -126 132 -173 53 -88 308 -294 365 -294 7 0 44 -27 83 -59 64 -54
75 -59 106 -54 29 5 41 0 78 -30 38 -31 49 -36 81 -30 30 4 42 1 67 -21 34
-28 45 -32 55 -16 11 18 43 11 74 -16 26 -22 32 -23 37 -10 9 22 36 20 68 -5
20 -16 30 -19 39 -10 16 16 44 14 72 -5 23 -15 25 -15 31 0 8 21 42 21 66 -1
17 -15 19 -15 33 3 13 18 15 18 45 2 27 -15 32 -16 36 -3 7 18 45 20 63 3 10
-11 14 -10 22 5 12 20 40 22 58 5 10 -11 15 -9 27 7 12 16 18 18 44 8 23 -9
30 -8 34 3 3 8 16 14 30 14 14 0 28 5 32 11 3 6 20 9 36 7 21 -4 32 0 39 15 8
14 17 17 35 13 14 -4 24 -2 24 4 0 5 13 10 30 10 20 0 33 7 41 21 7 14 17 19
30 16 12 -3 22 0 26 9 3 8 15 14 28 14 12 0 28 7 35 15 7 8 19 15 26 15 8 0
19 11 24 25 6 15 17 25 29 25 10 0 21 7 25 15 3 8 12 15 21 15 9 0 21 4 28 10
51 41 76 60 80 60 8 0 67 57 67 65 0 4 20 26 45 51 25 24 45 48 45 54 0 5 6
10 14 10 8 0 18 9 21 20 3 11 15 25 26 30 10 6 19 17 19 25 0 8 6 18 13 22 8
4 30 33 50 63 20 30 44 62 52 71 8 9 15 23 15 31 0 9 7 21 15 28 8 7 15 23 15
36 0 13 9 28 20 34 11 6 22 21 26 35 3 13 12 26 19 29 8 3 19 23 25 45 6 23
15 41 20 41 6 0 10 11 10 25 0 13 9 32 19 42 11 10 22 30 26 45 4 15 13 32 21
39 7 6 16 27 20 48 4 20 12 43 19 51 7 8 18 34 24 58 7 23 16 42 20 42 5 0 11
18 14 40 3 22 12 46 21 55 8 9 18 32 22 53 4 20 12 44 19 52 7 8 16 33 20 54
3 22 13 49 21 60 8 11 14 33 14 49 0 16 9 40 20 54 12 16 20 41 20 66 0 22 7
48 15 57 9 10 19 41 24 69 5 29 13 57 20 64 6 6 11 27 11 47 0 20 9 53 20 75
11 22 20 54 20 72 0 18 9 55 20 83 11 28 20 66 20 84 0 19 6 39 14 45 7 6 16
36 18 66 3 30 12 63 20 72 9 10 18 46 21 81 3 34 10 68 15 75 5 7 13 35 17 62
4 28 13 57 20 65 7 8 15 39 18 68 3 29 13 62 22 74 8 13 15 38 15 58 0 20 6
44 14 55 7 11 17 45 21 75 4 30 13 62 20 70 7 8 15 35 18 59 3 24 11 47 18 51
6 4 15 31 20 60 4 29 15 60 24 70 8 9 15 30 15 46 0 16 7 39 14 50 8 12 20 42
27 67 6 26 15 47 20 47 4 0 11 17 15 38 3 20 12 42 19 47 6 6 17 27 24 47 7
20 19 42 27 48 7 7 14 20 14 30 0 10 7 23 15 30 8 7 15 21 15 31 0 10 8 24 19
31 10 7 21 23 25 36 4 12 13 22 21 22 8 0 17 9 20 20 4 12 15 20 27 20 11 0
27 8 34 18 12 16 14 16 42 0 17 -10 39 -18 50 -18 28 0 103 -97 152 -195 39
-80 92 -228 105 -295 4 -19 18 -73 31 -120 14 -50 34 -177 50 -310 14 -124 29
-250 34 -280 4 -30 6 -113 4 -185 -3 -71 -6 -231 -8 -355 -2 -124 -9 -241 -15
-260 -6 -19 -11 -83 -11 -141 0 -69 -5 -121 -15 -149 -8 -24 -15 -77 -15 -122
0 -47 -6 -93 -15 -115 -8 -19 -15 -63 -15 -97 0 -33 -7 -73 -14 -88 -8 -15
-17 -59 -20 -98 -3 -39 -12 -80 -21 -92 -9 -14 -15 -44 -15 -78 0 -30 -7 -68
-15 -84 -9 -16 -18 -57 -22 -90 -3 -34 -11 -70 -18 -81 -7 -11 -14 -45 -17
-76 -3 -35 -11 -63 -21 -74 -11 -10 -17 -32 -17 -58 0 -24 -6 -51 -14 -62 -7
-11 -16 -42 -20 -69 -3 -27 -13 -60 -21 -72 -8 -13 -15 -39 -15 -57 0 -19 -9
-46 -20 -60 -12 -15 -20 -40 -20 -61 0 -20 -9 -54 -20 -76 -11 -22 -20 -47
-20 -57 0 -10 -6 -28 -14 -39 -8 -11 -18 -38 -21 -60 -4 -21 -13 -46 -20 -54
-7 -8 -15 -33 -18 -54 -4 -22 -13 -44 -21 -48 -8 -5 -18 -29 -22 -53 -3 -25
-15 -62 -25 -82 -11 -21 -19 -42 -19 -49 0 -6 -7 -17 -15 -24 -8 -7 -15 -27
-15 -45 0 -18 -9 -42 -20 -55 -11 -13 -20 -30 -20 -39 0 -9 -9 -29 -20 -46
-11 -16 -20 -43 -20 -58 0 -15 -7 -30 -15 -33 -8 -4 -15 -11 -15 -18 0 -6 -9
-29 -19 -50 -11 -21 -23 -51 -26 -68 -4 -17 -16 -39 -26 -49 -10 -10 -19 -27
-19 -37 0 -11 -9 -27 -20 -37 -11 -10 -20 -30 -20 -45 0 -15 -6 -33 -14 -39
-8 -7 -18 -25 -21 -41 -3 -16 -12 -31 -20 -33 -7 -3 -18 -22 -25 -41 -6 -20
-15 -36 -20 -36 -4 0 -11 -15 -14 -34 -4 -19 -13 -39 -21 -46 -8 -7 -15 -18
-15 -25 0 -7 -11 -24 -25 -39 -14 -15 -25 -33 -25 -40 0 -7 -9 -21 -20 -31
-11 -10 -20 -28 -20 -40 0 -13 -6 -28 -14 -34 -7 -6 -16 -25 -20 -41 -3 -18
-12 -30 -21 -30 -8 0 -15 -6 -15 -14 0 -7 -10 -25 -22 -39 -49 -57 -68 -86
-68 -105 0 -10 -9 -29 -20 -42 -11 -13 -20 -29 -20 -37 0 -7 -6 -16 -14 -19
-8 -3 -19 -19 -25 -35 -5 -16 -14 -29 -20 -29 -5 0 -13 -9 -16 -20 -3 -11 -12
-20 -19 -20 -8 0 -19 -14 -27 -32 -7 -17 -30 -51 -51 -75 -21 -24 -38 -52 -38
-61 0 -10 -9 -23 -20 -30 -11 -7 -20 -17 -20 -23 0 -5 -16 -26 -35 -46 -21
-21 -35 -46 -35 -60 0 -16 -7 -27 -19 -30 -11 -3 -21 -13 -24 -24 -3 -10 -12
-19 -20 -19 -8 0 -18 -11 -21 -25 -4 -14 -13 -25 -21 -25 -7 0 -17 -9 -20 -20
-3 -11 -15 -25 -26 -30 -10 -6 -19 -17 -19 -26 0 -8 -7 -17 -15 -20 -8 -3 -17
-14 -20 -25 -4 -10 -13 -19 -21 -19 -8 0 -14 -4 -14 -10 0 -5 -12 -23 -27 -39
-16 -16 -48 -52 -73 -80 -25 -28 -50 -51 -57 -51 -6 0 -15 -9 -18 -20 -3 -11
-15 -25 -26 -30 -10 -6 -19 -17 -19 -25 0 -8 -7 -15 -15 -15 -9 0 -20 -11 -25
-25 -5 -14 -16 -25 -24 -25 -7 0 -17 -11 -20 -25 -4 -14 -13 -25 -22 -25 -8 0
-17 -7 -20 -15 -4 -8 -12 -15 -20 -15 -15 0 -74 -57 -74 -71 0 -5 -8 -9 -18
-9 -17 0 -64 -38 -149 -120 -22 -22 -45 -40 -50 -40 -6 0 -15 -11 -21 -25 -6
-14 -18 -25 -26 -25 -8 0 -18 -9 -21 -20 -3 -11 -15 -20 -25 -20 -10 0 -22 -4
-25 -10 -3 -5 -14 -10 -23 -10 -10 0 -23 -9 -30 -20 -7 -11 -21 -20 -31 -20
-11 0 -23 -9 -26 -20 -3 -11 -13 -20 -21 -20 -8 0 -19 -11 -24 -25 -6 -15 -17
-25 -29 -25 -10 0 -21 -7 -25 -15 -3 -8 -17 -15 -31 -15 -14 0 -25 -4 -25 -10
0 -5 -7 -10 -15 -10 -8 0 -25 -11 -37 -25 -12 -14 -27 -25 -34 -25 -6 0 -14
-10 -17 -21 -4 -16 -11 -20 -26 -16 -12 3 -22 -1 -25 -9 -3 -8 -16 -14 -29
-14 -14 0 -30 -7 -37 -15 -7 -8 -19 -15 -26 -15 -8 0 -20 -12 -26 -26 -8 -17
-18 -24 -29 -21 -11 3 -19 -2 -23 -15 -4 -16 -10 -19 -29 -14 -16 4 -29 0 -37
-9 -7 -8 -20 -15 -30 -15 -10 0 -20 -10 -23 -21 -5 -17 -11 -20 -32 -17 -14 3
-28 1 -31 -3 -3 -5 -16 -9 -29 -9 -15 0 -26 -7 -30 -20 -3 -11 -14 -20 -24
-20 -10 0 -25 -10 -33 -22 -13 -20 -18 -21 -41 -11 -21 10 -26 9 -31 -3 -3 -8
-14 -14 -25 -14 -11 0 -21 -9 -24 -21 -5 -18 -11 -21 -36 -16 -18 4 -31 2 -31
-3 0 -6 -13 -10 -29 -10 -21 0 -30 -6 -34 -21 -5 -18 -11 -21 -36 -16 -18 4
-31 2 -31 -3 0 -6 -11 -10 -25 -10 -14 0 -29 -8 -35 -20 -12 -22 -40 -26 -58
-8 -9 9 -13 7 -18 -5 -3 -9 -17 -17 -30 -17 -12 0 -27 -7 -32 -17 -7 -12 -18
-14 -40 -10 -22 5 -32 2 -36 -10 -4 -10 -15 -14 -31 -10 -14 2 -28 0 -31 -4
-3 -5 -18 -9 -34 -9 -19 0 -33 -7 -40 -20 -13 -24 -33 -26 -50 -5 -11 14 -15
13 -27 -5 -8 -12 -23 -20 -32 -18 -10 2 -26 -3 -35 -11 -13 -11 -22 -11 -41
-3 -20 9 -25 8 -30 -8 -7 -23 -35 -26 -54 -8 -10 11 -14 10 -22 -5 -11 -19
-40 -22 -56 -6 -9 9 -16 7 -29 -5 -11 -11 -25 -15 -40 -12 -15 4 -24 2 -24 -5
0 -8 -13 -10 -39 -6 -29 3 -41 1 -45 -9 -7 -17 -38 -18 -55 -1 -10 10 -14 9
-22 -6 -12 -20 -32 -22 -59 -5 -16 11 -22 9 -34 -7 -14 -19 -16 -19 -44 -3
-26 16 -31 16 -36 3 -6 -18 -47 -20 -64 -3 -9 9 -13 7 -18 -5 -8 -22 -42 -22
-66 -1 -16 16 -18 16 -24 0 -8 -20 -42 -21 -65 0 -16 14 -18 14 -29 -5 -13
-26 -27 -26 -53 -4 -18 17 -19 17 -32 0 -15 -21 -38 -22 -55 -2 -14 17 -40 20
-40 5 0 -16 -43 -12 -70 7 -17 12 -25 13 -28 5 -5 -17 -57 -15 -72 3 -12 14
-15 14 -30 0 -22 -20 -37 -19 -68 5 -23 18 -27 19 -34 5 -12 -21 -34 -19 -70
6 -22 16 -32 19 -41 10 -18 -18 -49 -13 -75 11 -22 21 -24 22 -33 5 -14 -24
-35 -21 -74 9 -21 15 -36 21 -40 15 -11 -19 -57 -11 -88 15 -18 15 -33 22 -35
15 -6 -18 -52 -13 -79 9 -19 15 -34 18 -62 14 -31 -5 -43 -1 -68 20 -32 27
-53 33 -53 16 0 -20 -38 -9 -86 25 -27 19 -50 31 -52 25 -7 -20 -55 -9 -92 22
-31 26 -45 32 -77 30 -32 -3 -47 3 -83 32 -39 31 -50 35 -82 30 -30 -5 -41 -2
-61 18 -41 41 -92 68 -128 68 -25 0 -50 13 -98 50 -51 40 -71 50 -102 50 -32
0 -51 11 -125 70 -67 54 -96 71 -130 76 -36 5 -63 22 -145 90 -64 54 -130 98
-182 123 -45 21 -102 56 -127 78 -25 22 -83 73 -129 114 -46 41 -111 97 -144
124 -277 230 -727 673 -727 715 0 6 -42 55 -93 108 -52 53 -121 136 -154 184
-33 47 -84 114 -115 147 -30 34 -69 87 -86 118 -17 32 -52 82 -77 112 -25 30
-59 80 -75 112 -16 31 -48 79 -71 105 -23 26 -49 67 -59 90 -10 23 -40 70 -66
105 -26 35 -56 84 -67 109 -11 25 -33 64 -49 88 -16 23 -39 64 -50 90 -12 26
-31 61 -44 77 -35 47 -251 483 -358 725 -85 190 -95 214 -131 310 -33 89 -44
116 -95 238 -22 52 -25 61 -117 322 -77 219 -136 402 -169 523 -13 49 -26 92
-29 97 -3 5 -15 44 -26 87 -57 218 -103 398 -124 488 -13 55 -33 141 -45 190
-42 179 -49 211 -56 255 -3 25 -14 79 -24 120 -10 41 -26 125 -35 187 -9 61
-20 126 -26 145 -5 18 -19 103 -30 188 -11 85 -28 202 -39 260 -11 58 -27 175
-36 260 -27 266 -33 314 -43 350 -6 19 -11 69 -11 110 0 41 -4 102 -9 135 -5
33 -12 123 -16 200 -3 77 -8 149 -11 160 -3 16 -29 490 -33 625 -1 19 -3 226
-6 460 -5 480 -7 501 -85 666 -43 92 -73 126 -227 258 -62 54 -76 62 -105 58
-25 -3 -43 4 -75 27 -35 26 -43 28 -53 15 -17 -20 -44 -18 -65 6 -22 24 -35
26 -35 5 0 -18 -41 -20 -58 -3 -9 9 -15 9 -24 0 -15 -15 -54 -16 -63 -2 -9 15
-25 12 -25 -5 0 -21 -27 -30 -45 -15 -13 10 -19 10 -33 -4 -10 -9 -26 -16 -34
-16 -9 0 -18 -9 -21 -21 -5 -17 -11 -20 -34 -15 -24 6 -35 1 -66 -29 -20 -19
-40 -35 -46 -35 -5 0 -13 -9 -16 -20 -3 -11 -13 -20 -21 -20 -8 0 -14 -4 -14
-10 0 -5 -14 -23 -30 -40 -17 -17 -30 -35 -30 -40 0 -6 -7 -10 -15 -10 -8 0
-15 -6 -15 -14 0 -7 -11 -25 -25 -40 -14 -15 -25 -35 -25 -45 0 -10 -7 -24
-15 -31 -8 -7 -15 -28 -15 -46 0 -19 -8 -58 -19 -88 -17 -49 -18 -84 -15 -467
3 -443 46 -1407 65 -1457 6 -15 14 -85 19 -157 15 -216 40 -486 50 -529 5 -23
20 -133 35 -246 14 -113 30 -221 35 -240 5 -19 16 -93 25 -165 9 -71 25 -166
35 -210 11 -44 26 -127 35 -185 9 -58 23 -131 31 -163 8 -32 22 -99 30 -150 8
-51 20 -106 25 -124 6 -18 21 -81 33 -140 33 -154 162 -661 197 -773 16 -52
36 -117 44 -145 56 -198 188 -599 257 -780 17 -44 45 -123 63 -175 18 -52 51
-136 74 -186 22 -51 41 -94 41 -97 0 -9 134 -328 180 -427 108 -238 391 -794
444 -874 18 -28 41 -68 50 -90 9 -21 31 -59 50 -85 18 -25 46 -71 61 -101 15
-30 42 -75 60 -100 18 -25 43 -65 55 -89 12 -24 40 -67 62 -94 22 -28 50 -72
63 -97 13 -26 46 -73 73 -106 27 -32 66 -88 86 -124 21 -35 60 -88 86 -117 27
-29 63 -79 81 -111 19 -31 69 -97 114 -146 44 -49 89 -104 100 -122 40 -64 88
-121 198 -236 167 -173 224 -238 261 -293 18 -27 51 -64 72 -81 22 -17 113
-102 204 -189 91 -86 198 -185 239 -219 40 -33 118 -100 172 -149 55 -48 108
-87 119 -87 11 0 37 -15 57 -34 21 -18 54 -41 73 -49 19 -8 49 -28 65 -44 113
-107 240 -203 269 -203 26 0 78 -33 166 -105 89 -74 109 -85 149 -85 19 0 43
-11 63 -28 88 -76 130 -102 166 -102 29 0 49 -9 87 -41 65 -54 84 -63 121 -60
23 2 43 -8 86 -43 45 -38 62 -46 95 -46 29 0 50 -8 82 -33 32 -24 52 -32 85
-32 35 0 51 -8 86 -38 37 -32 48 -36 79 -31 31 5 43 0 81 -30 32 -25 48 -32
57 -25 18 16 67 2 93 -26 19 -21 29 -24 61 -19 33 6 44 2 78 -25 23 -19 42
-27 46 -21 11 18 56 11 87 -15 32 -27 43 -30 53 -15 10 17 35 11 71 -17 26
-20 38 -23 46 -15 18 18 41 14 78 -13 23 -17 37 -22 44 -15 17 17 47 11 82
-15 26 -20 33 -22 38 -10 8 21 39 18 70 -6 23 -18 31 -20 56 -9 25 10 32 9 61
-12 22 -16 33 -19 36 -10 7 19 48 14 78 -10 20 -15 30 -18 33 -10 6 18 52 15
74 -5 14 -13 21 -14 30 -5 16 16 44 15 72 -4 16 -10 26 -12 31 -5 10 17 56 13
78 -6 18 -17 19 -17 28 0 13 22 37 22 62 0 18 -17 19 -17 32 0 16 22 31 22 63
-3 23 -18 27 -19 34 -5 11 19 32 19 62 0 21 -14 24 -14 29 0 8 19 36 19 64 0
14 -10 24 -12 28 -5 8 13 62 13 70 -1 4 -6 12 -4 20 8 12 16 17 16 46 6 24
-10 35 -10 40 -1 4 7 21 9 44 5 21 -3 45 -1 55 5 13 9 25 9 42 1 16 -7 28 -7
40 1 13 8 26 8 46 0 23 -9 31 -8 39 4 7 12 15 13 39 5 25 -9 32 -8 41 6 9 14
15 14 42 4 27 -10 33 -9 38 3 6 17 44 19 60 3 8 -8 14 -5 22 10 14 25 28 27
53 4 20 -17 28 -13 41 22 3 6 17 3 35 -7 27 -16 30 -16 36 -2 5 12 14 15 36
10 17 -3 30 -1 30 4 0 6 16 10 36 10 23 0 42 6 50 18 11 15 16 15 35 3 20 -12
24 -11 36 5 11 16 18 17 43 7 25 -9 32 -9 39 4 5 10 17 14 34 11 17 -3 28 0
32 10 4 10 14 13 36 8 21 -4 31 -1 35 9 7 17 50 20 59 4 5 -6 13 -2 22 11 11
16 22 20 39 16 15 -4 24 -2 24 5 0 7 12 10 31 7 22 -4 33 0 40 15 8 15 18 18
40 13 15 -3 31 -1 34 4 3 6 17 10 30 10 12 0 26 7 29 16 5 13 15 15 40 11 25
-4 36 -1 40 9 3 8 17 14 31 14 14 0 25 5 25 11 0 8 12 10 35 6 28 -5 35 -2 40
15 5 15 13 18 30 14 13 -3 27 -2 30 4 3 5 19 10 34 10 21 0 30 6 34 21 5 17
11 20 31 15 14 -3 28 -2 31 4 3 5 19 10 34 10 21 0 30 6 34 21 5 17 11 20 31
15 14 -3 28 -2 31 4 3 5 17 10 30 10 14 0 29 9 36 21 7 13 17 19 29 16 11 -3
21 1 24 9 3 8 19 14 35 14 16 0 31 6 35 15 3 8 14 15 25 15 11 0 25 9 31 21 9
15 18 19 35 15 13 -3 27 -2 30 4 3 5 15 10 26 10 12 0 23 10 29 26 8 19 16 25
30 21 11 -3 21 1 24 10 4 10 15 14 31 10 18 -3 29 1 36 14 5 11 18 19 28 19
10 0 21 9 24 20 3 14 14 20 31 20 14 0 26 5 26 10 0 6 11 10 24 10 13 0 29 7
36 15 7 8 19 15 26 15 8 0 19 12 24 26 8 19 16 25 30 21 11 -3 21 1 24 9 3 8
16 14 29 14 14 0 30 7 37 15 7 8 18 15 26 15 7 0 16 9 19 20 4 11 15 20 27 20
11 0 22 8 25 20 3 11 13 20 23 20 23 0 83 30 93 47 4 7 15 13 23 13 8 0 19 11
24 25 5 14 17 25 25 25 9 0 18 7 22 16 3 8 15 20 27 25 11 5 28 13 36 18 8 5
32 17 53 27 21 11 43 27 48 36 5 10 16 18 23 18 8 0 16 9 19 20 3 11 12 20 20
20 9 0 19 9 22 21 4 11 18 24 31 29 13 5 24 14 24 20 0 5 9 10 19 10 10 0 21
7 25 15 3 8 13 15 21 15 9 0 36 19 60 43 24 23 59 56 79 72 19 17 36 36 36 43
0 6 9 12 19 12 12 0 21 9 25 25 4 14 13 25 21 25 7 0 17 9 20 20 3 11 13 20
21 20 8 0 19 11 24 25 5 14 16 25 24 25 18 0 99 77 109 103 3 9 13 17 21 17 7
0 16 9 19 20 3 12 14 20 27 20 11 0 31 11 43 24 12 13 38 41 57 63 19 21 77
85 129 141 107 117 161 189 161 214 0 10 7 18 15 18 9 0 18 8 22 18 4 9 24 33
45 53 21 20 38 41 38 48 0 6 6 14 14 17 8 3 18 19 21 35 4 16 12 29 20 29 7 0
16 11 19 25 4 14 13 25 21 25 8 0 15 4 15 9 0 6 10 21 23 36 12 14 31 37 42
51 11 15 27 34 35 43 26 30 80 109 80 118 0 5 9 16 20 26 11 9 20 26 20 37 0
11 5 20 11 20 5 0 15 13 20 29 6 16 17 32 25 35 8 3 14 12 14 19 0 8 10 26 23
40 12 14 30 36 40 49 9 12 28 37 42 54 14 18 25 41 25 52 0 11 6 27 14 34 7 8
17 25 21 38 4 14 15 33 24 42 46 48 101 135 101 158 0 10 6 25 14 32 7 8 17
29 21 46 3 18 12 32 20 32 7 0 18 13 25 30 7 17 16 30 20 30 5 0 14 17 21 38
6 20 18 46 25 57 8 11 14 28 14 38 0 9 7 20 15 23 8 3 19 21 25 39 6 18 18 39
26 45 7 7 14 25 14 41 0 15 7 34 15 42 7 8 17 26 21 41 3 14 11 30 18 34 18
11 66 111 66 137 0 13 5 27 10 30 14 8 70 130 70 151 0 8 9 27 20 41 11 14 20
34 20 43 0 10 6 23 14 29 8 7 17 30 21 51 4 21 13 44 20 50 8 6 17 26 20 43 4
18 13 41 19 52 7 11 16 36 20 56 3 21 13 42 21 49 8 7 15 27 15 45 0 18 8 43
19 56 10 13 22 39 26 57 4 18 13 45 21 60 8 15 14 35 14 45 0 11 9 30 20 44
12 15 20 41 20 63 0 23 8 46 20 60 13 15 20 37 20 64 0 24 8 53 20 71 11 17
20 40 20 53 0 13 6 35 14 50 7 15 17 46 21 70 4 24 13 56 21 70 8 15 14 43 14
62 0 20 7 45 15 57 8 12 18 43 21 70 4 26 12 57 19 69 7 11 16 43 20 70 4 27
12 58 17 68 6 10 14 50 19 89 5 38 14 76 20 83 5 7 13 39 16 71 3 32 12 68 19
80 8 12 14 39 14 60 0 21 9 70 20 108 11 38 20 93 20 121 0 29 7 65 15 80 8
16 15 52 15 81 0 29 6 72 14 95 8 24 16 89 19 146 3 56 10 109 16 116 6 7 14
62 17 122 3 60 10 129 15 153 6 25 10 110 11 190 0 80 4 169 10 196 29 149
-13 973 -62 1215 -10 52 -22 115 -26 140 -26 179 -203 734 -253 794 -5 6 -19
35 -30 65 -12 29 -33 68 -47 87 -14 18 -40 60 -57 93 -34 65 -112 165 -189
243 -26 26 -56 65 -67 86 -24 47 -84 102 -111 102 -11 0 -37 15 -57 34 -21 18
-49 37 -63 41 -14 4 -50 29 -80 54 -87 74 -90 75 -130 73 -31 -2 -46 4 -74 28
-30 26 -41 31 -66 25 -24 -5 -40 -1 -72 20 -29 19 -43 24 -51 16 -18 -18 -43
-13 -75 14 -27 23 -30 23 -46 7 -16 -16 -19 -16 -55 5 -34 20 -41 21 -51 8
-17 -20 -32 -19 -63 5 l-26 20 -6 -20 c-8 -25 -32 -26 -58 -3 -18 17 -19 17
-28 0 -12 -21 -42 -22 -60 -1 -11 14 -15 13 -30 -8 -16 -20 -21 -21 -40 -10
-18 11 -24 11 -40 -4 -16 -14 -24 -15 -44 -6 -15 7 -25 8 -25 2 0 -6 -13 -10
-29 -10 -18 0 -34 -8 -44 -22 -14 -21 -17 -22 -38 -9 -20 12 -24 11 -34 -3 -7
-9 -22 -16 -33 -16 -11 0 -24 -4 -27 -10 -3 -5 -19 -10 -35 -10 -15 0 -30 -7
-34 -15 -3 -8 -14 -15 -25 -15 -11 0 -25 -9 -32 -21 -7 -14 -17 -19 -29 -16
-11 3 -24 -1 -31 -9 -6 -8 -19 -14 -28 -14 -9 0 -22 -9 -29 -20 -7 -11 -18
-20 -26 -20 -7 0 -16 -9 -19 -20 -3 -12 -14 -20 -26 -20 -12 0 -24 -7 -27 -15
-4 -8 -14 -15 -24 -15 -10 0 -20 -7 -24 -15 -3 -8 -10 -15 -17 -15 -6 0 -39
-29 -74 -65 -35 -36 -68 -65 -74 -65 -6 0 -20 -17 -31 -37 -10 -21 -44 -65
-75 -98 -30 -33 -55 -65 -55 -71 0 -6 -9 -19 -20 -29 -11 -10 -20 -26 -20 -35
0 -10 -7 -23 -15 -30 -8 -7 -15 -21 -15 -31 0 -10 -9 -23 -20 -29 -11 -6 -20
-17 -20 -24 0 -7 -11 -25 -25 -40 -14 -15 -25 -35 -25 -45 0 -10 -6 -24 -14
-30 -8 -7 -17 -28 -21 -47 -3 -19 -12 -37 -20 -40 -7 -3 -16 -16 -19 -30 -4
-13 -15 -33 -26 -44 -12 -12 -20 -33 -20 -54 0 -18 -6 -39 -14 -45 -8 -7 -17
-24 -21 -39 -4 -15 -12 -34 -19 -42 -8 -8 -16 -32 -19 -54 -3 -21 -13 -46 -21
-55 -9 -10 -19 -32 -22 -49 -4 -17 -13 -37 -20 -43 -8 -6 -14 -27 -14 -46 0
-20 -9 -46 -20 -60 -12 -15 -20 -41 -20 -63 0 -23 -8 -46 -20 -60 -13 -14 -20
-37 -20 -62 0 -21 -9 -55 -20 -75 -11 -21 -20 -54 -20 -73 0 -19 -7 -44 -15
-54 -8 -11 -15 -36 -15 -56 0 -19 -9 -52 -20 -73 -11 -20 -20 -54 -20 -74 0
-21 -9 -51 -20 -68 -12 -18 -20 -47 -20 -71 0 -23 -6 -47 -14 -53 -8 -7 -15
-38 -18 -75 -2 -42 -9 -69 -21 -80 -10 -11 -17 -33 -17 -57 0 -21 -9 -56 -20
-76 -11 -21 -20 -53 -20 -71 0 -18 -6 -43 -14 -55 -7 -12 -16 -47 -20 -78 -3
-31 -13 -69 -21 -85 -8 -16 -15 -45 -15 -64 0 -20 -6 -44 -14 -55 -7 -11 -17
-45 -21 -75 -4 -30 -13 -62 -20 -70 -7 -8 -16 -34 -20 -57 -3 -23 -13 -47 -21
-54 -8 -6 -14 -29 -14 -54 0 -27 -7 -51 -20 -68 -12 -15 -20 -40 -20 -65 0
-22 -6 -45 -14 -51 -8 -6 -19 -31 -25 -56 -6 -24 -15 -47 -21 -50 -5 -3 -10
-19 -10 -34 0 -15 -11 -42 -25 -61 -14 -19 -25 -43 -25 -54 0 -25 -38 -104
-62 -130 -10 -11 -18 -24 -18 -29 0 -5 -9 -20 -20 -34 -11 -14 -20 -33 -20
-41 0 -8 -17 -31 -38 -51 -21 -20 -41 -44 -45 -53 -4 -11 -17 -18 -31 -18 -14
0 -28 -4 -31 -10 -3 -5 -17 -10 -31 -10 -14 0 -27 -7 -30 -15 -8 -21 -44 -18
-74 5 -17 13 -41 20 -73 20 -43 0 -49 3 -73 38 -65 96 -114 174 -114 182 0 5
-4 10 -9 12 -18 6 -86 193 -141 383 -11 39 -27 121 -35 184 -8 62 -20 131 -25
152 -12 44 -35 287 -41 424 -11 259 3 935 20 1000 6 22 11 81 11 130 0 50 7
121 15 160 8 38 15 111 15 161 0 59 5 104 15 127 8 20 15 65 15 99 0 35 7 88
15 118 8 30 15 86 15 123 0 37 6 80 14 95 7 15 16 63 19 107 3 44 12 97 21
117 9 21 16 62 16 93 0 31 7 69 15 85 8 15 15 52 16 82 1 29 10 75 20 101 11
26 19 64 19 85 0 20 6 48 13 62 8 15 17 53 20 86 3 33 13 76 22 97 8 20 15 56
15 80 0 24 7 52 15 63 8 10 15 37 15 59 0 23 9 58 20 80 11 22 20 55 20 75 0
19 9 49 20 65 12 17 20 47 20 70 0 22 6 49 14 60 7 11 17 42 21 70 4 27 13 58
21 69 8 11 14 36 14 56 0 19 9 52 20 73 11 20 20 49 20 64 0 16 9 42 20 58 12
18 20 47 20 71 0 24 6 47 15 54 8 7 17 28 21 49 4 20 12 43 19 51 7 8 16 36
19 62 4 25 14 52 21 58 8 7 15 27 15 45 0 18 9 44 20 58 11 14 20 33 20 44 1
10 9 36 20 58 11 22 19 46 20 53 0 8 9 25 20 39 11 14 20 39 20 55 0 17 9 41
20 55 11 14 20 34 20 43 0 10 7 23 15 30 8 7 17 28 21 49 4 20 12 43 19 51 7
8 16 26 20 40 4 14 13 32 20 40 7 8 15 31 19 51 4 21 13 42 21 49 8 7 15 18
15 24 0 7 11 27 25 46 14 19 25 41 25 51 0 9 7 22 15 29 8 7 15 23 15 36 0 13
9 32 20 41 11 10 20 23 20 29 0 6 10 22 21 35 12 13 26 36 31 52 6 15 14 27
18 27 5 0 11 13 15 29 3 16 13 35 21 42 8 6 14 18 14 25 0 8 9 22 20 31 11 10
20 23 20 29 0 6 11 23 25 38 14 15 25 38 25 51 0 13 6 30 14 38 8 8 17 36 21
63 3 27 14 66 23 87 37 90 -28 352 -120 477 -52 71 -187 200 -209 200 -10 0
-41 20 -70 45 -55 47 -64 51 -74 35 -10 -16 -30 -12 -70 16 -34 22 -39 24 -47
10 -11 -20 -42 -21 -58 -1 -14 17 -40 20 -40 5 0 -13 -43 -13 -56 0 -8 8 -16
4 -26 -12z"/>
</g>
</svg>
